
<svg width="100" height="100" viewBox="0 0 100 100" xmlns="http://www.w3.org/2000/svg">
  <defs>
    <linearGradient id="bg" x1="0%" y1="0%" x2="100%" y2="100%">
      <stop offset="0%" style="stop-color:#8c1c37;stop-opacity:1" />
      <stop offset="100%" style="stop-color:#aa2249;stop-opacity:1" />
    </linearGradient>
  </defs>
  
  <!-- Фон -->
  <rect width="100" height="100" fill="url(#bg)" rx="20"/>
  
  <!-- Основная форма логотипа -->
  <g transform="translate(20, 20) scale(0.6)">
    <!-- Основная форма -->
    <path fill="#ffffff" d="M50,10 C30,10 15,25 15,45 C15,65 30,80 50,80 C70,80 85,65 85,45 C85,25 70,10 50,10 Z"/>
    
    <!-- Листья -->
    <path fill="#47b24c" d="M50,5 C45,2 40,5 45,8 C50,11 55,8 50,5 Z"/>
    <path fill="#47b24c" d="M57,6 C52,3 47,6 52,9 C57,12 62,9 57,6 Z"/>
    <path fill="#47b24c" d="M43,6 C38,3 33,6 38,9 C43,12 48,9 43,6 Z"/>
    
    <!-- Буква "a" -->
    <path fill="#8c1c37" d="M35,20 L67,20 L67,25 L57,25 L57,50 L50,50 L50,25 L40,25 L40,30 L45,30 L45,45 L50,45 L50,30 L55,30 L55,25 L35,25 Z"/>
  </g>
</svg>
